PathFileType  4	(X/Y/Z) C:\Users\wagnerel85475\Documents\Thesis\opencap-core\Data\3375ffbc-daeb-4a43-b4f7-ac9899cd4c71\MarkerData\PreAugmentation
DataRate	CameraRate	NumFrames	NumMarkers	Units	OrigDataRate	OrigDataStartFrame	OrigNumFrames
60.0	60.0	12	20	m	60.0	785	897
Frame#	Time	Neck			RShoulder			RElbow			RWrist			LShoulder			LElbow			LWrist			midHip			RHip			RKnee			RAnkle			LHip			LKnee			LAnkle			LBigToe			LSmallToe			LHeel			RBigToe			RSmallToe			RHeel			
		X1	Y1	Z1	X2	Y2	Z2	X3	Y3	Z3	X4	Y4	Z4	X5	Y5	Z5	X6	Y6	Z6	X7	Y7	Z7	X8	Y8	Z8	X9	Y9	Z9	X10	Y10	Z10	X11	Y11	Z11	X12	Y12	Z12	X13	Y13	Z13	X14	Y14	Z14	X15	Y15	Z15	X16	Y16	Z16	X17	Y17	Z17	X18	Y18	Z18	X19	Y19	Z19	X20	Y20	Z20	

785	13.0666667	0.7360000	1.3158200	-0.0858200	0.7576100	1.3178200	0.1019100	1.0135500	1.1867600	0.1303000	1.3664600	1.1962500	0.0032800	0.7866200	1.3162500	-0.2525700	1.0739600	1.1485800	-0.2593200	1.3830500	1.1763300	-0.1346300	0.5436900	0.7606400	-0.0744700	0.5297000	0.7613800	0.0310000	0.7109100	0.3345300	0.0911800	0.5929500	-0.1836400	0.0954800	0.5347200	0.7689800	-0.1913600	0.6949000	0.3381700	-0.2556700	0.6090300	-0.1641200	-0.2823900	0.8247100	-0.2151900	-0.3424300	0.7754600	-0.2218900	-0.3822800	0.5515400	-0.2227600	-0.2563400	0.7857100	-0.2136800	0.2007600	0.7325200	-0.2183400	0.2141900	0.5693100	-0.2325700	0.0731100
786	13.0833333	0.7351100	1.3265500	-0.0866000	0.7569700	1.3251200	0.1023900	1.0305400	1.1932100	0.1290000	1.3761900	1.2056600	0.0059100	0.7776300	1.3302400	-0.2494300	1.0722500	1.1629700	-0.2661400	1.3704800	1.1891500	-0.1212000	0.5532600	0.7776000	-0.0779800	0.5387600	0.7746500	0.0354900	0.6993000	0.3323100	0.0803500	0.5923900	-0.1834000	0.0952300	0.5541200	0.7830500	-0.1997800	0.6830600	0.3398400	-0.2512900	0.6092600	-0.1603500	-0.2816300	0.8254000	-0.2148700	-0.3424100	0.7746500	-0.2220400	-0.3823800	0.5515300	-0.2228200	-0.2562700	0.7759400	-0.2173500	0.1980100	0.7324000	-0.2183900	0.2138300	0.5692400	-0.2299300	0.0726700
787	13.1000000	0.7352200	1.3339500	-0.0859300	0.7497200	1.3385300	0.0986100	1.0422500	1.1911400	0.1219900	1.3776600	1.2157000	-0.0031700	0.7677100	1.3430500	-0.2527800	1.0652900	1.1786600	-0.2632200	1.3567900	1.2026900	-0.1197500	0.5619900	0.7867200	-0.0749400	0.5469500	0.7879900	0.0306000	0.6984700	0.3394500	0.0801300	0.5831300	-0.1828700	0.0916700	0.5543800	0.7911500	-0.1997000	0.6830900	0.3440200	-0.2505100	0.6088500	-0.1642400	-0.2824200	0.8248900	-0.2150300	-0.3424100	0.7754200	-0.2219300	-0.3823200	0.5514700	-0.2229000	-0.2563200	0.7662800	-0.2206300	0.1949800	0.7324900	-0.2154100	0.2135000	0.5706500	-0.2193300	0.0716400
788	13.1166667	0.7257400	1.3639900	-0.0830100	0.7280400	1.3663400	0.0998500	1.0747100	1.2048100	0.1278100	1.3777100	1.2388100	-0.0024100	0.7682400	1.3636600	-0.2534100	1.0713100	1.1913800	-0.2587900	1.3344700	1.2225000	-0.1383100	0.5727600	0.7952300	-0.0789300	0.5579000	0.7960900	0.0346700	0.6887600	0.3445600	0.0768800	0.5825800	-0.1828700	0.0914200	0.5737800	0.7974300	-0.2080100	0.6798400	0.3511000	-0.2497100	0.6081200	-0.1611400	-0.2828200	0.8253500	-0.2149100	-0.3423900	0.7662700	-0.2250700	-0.3862800	0.5515300	-0.2230700	-0.2562900	0.7741800	-0.2178700	0.1906600	0.7323100	-0.2183600	0.2137500	0.5710300	-0.2168900	0.0711500
789	13.1333333	0.7161100	1.3722200	-0.0857700	0.6983000	1.3748300	0.0892600	1.0469800	1.2325700	0.1100200	1.3361600	1.2513100	-0.0095100	0.7579300	1.3718100	-0.2568300	1.0724100	1.2058800	-0.2595100	1.3152700	1.2311600	-0.1336300	0.5714400	0.7969600	-0.0788900	0.5672200	0.7984400	0.0380000	0.6897700	0.3512300	0.0758000	0.5829900	-0.1827700	0.0917000	0.5744400	0.8022500	-0.2078300	0.6724900	0.3492100	-0.2455700	0.6083800	-0.1644400	-0.2825000	0.8245100	-0.2152000	-0.3424200	0.7669100	-0.2249700	-0.3861800	0.5421300	-0.2264400	-0.2601500	0.7742600	-0.2177100	0.1904900	0.7324000	-0.2183200	0.2141100	0.5628500	-0.2196800	0.0754500
790	13.1500000	0.7158800	1.3749500	-0.0866000	0.6973100	1.3748300	0.0896800	1.0598700	1.2402200	0.1108200	1.3145600	1.2559200	-0.0031000	0.7407400	1.3748500	-0.2574400	1.0638100	1.2072400	-0.2553400	1.3220100	1.2404400	-0.1309500	0.5822900	0.7975900	-0.0828100	0.5782300	0.7990300	0.0420100	0.6710600	0.3438500	0.0686700	0.5824600	-0.1827000	0.0915000	0.5932500	0.7990700	-0.2083400	0.6704700	0.3487000	-0.2455300	0.6079400	-0.1574000	-0.2822900	0.8170100	-0.2178900	-0.3461600	0.7660300	-0.2250800	-0.3863200	0.5421400	-0.2266200	-0.2600900	0.7662300	-0.2208800	0.1951100	0.7322900	-0.2184000	0.2138200	0.5621400	-0.2198100	0.0757600
791	13.1666667	0.7159300	1.3755300	-0.0857000	0.7088400	1.3738800	0.0928100	1.0489100	1.2434200	0.1006200	1.3443400	1.2656200	0.0009300	0.7219600	1.3761400	-0.2649500	1.0487500	1.2182500	-0.2635800	1.3136800	1.2497900	-0.1332300	0.5911800	0.7991000	-0.0797200	0.5888400	0.8008200	0.0448200	0.6617800	0.3456200	0.0647200	0.5828300	-0.1826900	0.0916900	0.6041500	0.8041200	-0.2042700	0.6544800	0.3469200	-0.2377600	0.6081200	-0.1570200	-0.2825100	0.8075500	-0.2214200	-0.3425500	0.7578200	-0.2282000	-0.3826400	0.5423100	-0.2263000	-0.2601800	0.7662200	-0.2207700	0.1949300	0.7323300	-0.2184200	0.2141300	0.5627500	-0.2195000	0.0755100
792	13.1833333	0.7073800	1.3783300	-0.0824700	0.6879500	1.3742000	0.0861800	1.0778700	1.2304500	0.1092400	1.3499700	1.2770400	-0.0010900	0.6951800	1.3831500	-0.2535400	1.0312600	1.2315300	-0.2781600	1.3056300	1.2596400	-0.1377400	0.6010700	0.8105600	-0.0836700	0.5986300	0.8078500	0.0406400	0.6411400	0.3486400	0.0578900	0.5817100	-0.1791300	0.0920800	0.6132800	0.8085700	-0.2004900	0.6249400	0.3405700	-0.2255100	0.5989800	-0.1602700	-0.2786200	0.8081800	-0.2212400	-0.3424800	0.7569900	-0.2283700	-0.3827500	0.5423300	-0.2263200	-0.2601000	0.7741600	-0.2179600	0.1906300	0.7323400	-0.2183800	0.2137900	0.5621600	-0.2198000	0.0757500
793	13.2000000	0.6974000	1.3833400	-0.0851300	0.6786200	1.3821800	0.0824800	1.0439900	1.2498100	0.0951700	1.3174800	1.2850300	-0.0046300	0.6847300	1.3881200	-0.2490000	1.0324900	1.2360900	-0.2713700	1.3126700	1.2653800	-0.1331200	0.6003000	0.8077700	-0.0838700	0.6075100	0.8074100	0.0439100	0.6288200	0.3387400	0.0554800	0.5821700	-0.1790800	0.0922200	0.6141800	0.8054300	-0.2002900	0.6151500	0.3401200	-0.2200900	0.6086200	-0.1530000	-0.2819400	0.8073700	-0.2215500	-0.3425100	0.7576800	-0.2283100	-0.3825500	0.5428600	-0.2262500	-0.2601700	0.7663600	-0.2207600	0.1950500	0.7323500	-0.2184400	0.2141800	0.5627600	-0.2193500	0.0754800
794	13.2166667	0.6883700	1.3830500	-0.0817700	0.6771300	1.3788200	0.0828100	1.0065300	1.2480500	0.0997700	1.2895800	1.2773000	0.0048700	0.6756300	1.3955400	-0.2537800	1.0230100	1.2458700	-0.2821500	1.3048900	1.2663500	-0.1377200	0.6019200	0.8107200	-0.0836800	0.6084400	0.8100300	0.0443600	0.6297700	0.3424900	0.0547900	0.5821700	-0.1827200	0.0914000	0.6327500	0.8143900	-0.1928300	0.6143000	0.3357200	-0.2207200	0.6084700	-0.1531200	-0.2817100	0.8080900	-0.2213400	-0.3425300	0.7568500	-0.2318700	-0.3832700	0.5528500	-0.2198600	-0.2557200	0.7661500	-0.2209700	0.1951900	0.7243300	-0.2212900	0.2183000	0.5610600	-0.2227400	0.0764700
795	13.2333333	0.6784100	1.3878100	-0.0848100	0.6857400	1.3860800	0.0779300	0.9713000	1.2373200	0.1210900	1.2782800	1.2862200	0.0111400	0.6743100	1.4041700	-0.2534700	1.0157800	1.2446100	-0.2866000	1.3044300	1.2691500	-0.1367300	0.6012500	0.8143400	-0.0841600	0.6097500	0.8168000	0.0431800	0.6187400	0.3363200	0.0520100	0.5724500	-0.1863800	0.0885100	0.6331400	0.8186000	-0.1928400	0.6069700	0.3337800	-0.2165400	0.6005000	-0.1590800	-0.2776600	0.8074100	-0.2251300	-0.3433000	0.7575800	-0.2318100	-0.3831900	0.5529000	-0.2197000	-0.2556600	0.7662400	-0.2207800	0.1949600	0.7226600	-0.2218500	0.2114300	0.5614300	-0.2225300	0.0762500
796	13.2500000	0.6878300	1.3872400	-0.0819600	0.6871800	1.3898300	0.0860700	0.9335000	1.2270000	0.1444900	1.2762900	1.2857300	0.0129900	0.6657900	1.4037200	-0.2580300	1.0068400	1.2497100	-0.2825700	1.2912100	1.2790400	-0.1376800	0.6027100	0.8175300	-0.0841300	0.6192200	0.8206300	0.0393300	0.6258400	0.3311200	0.0484600	0.5719800	-0.1863300	0.0882800	0.6232700	0.8206400	-0.1971300	0.6054300	0.3334600	-0.2166800	0.6093500	-0.1561600	-0.2811300	0.8082400	-0.2248700	-0.3432900	0.7569300	-0.2319200	-0.3833800	0.5529500	-0.2197800	-0.2555900	0.7661900	-0.2209800	0.1951300	0.7243300	-0.2213200	0.2182700	0.5608000	-0.2227500	0.0764700
